<svg version="1.1" xmlns="http://www.w3.org/2000/svg" viewBox="0 0 1122.1690287384617 1185.5396275289158" width="1122.1690287384617" height="1185.5396275289158">
  <!-- svg-source:excalidraw -->
  
  <defs>
    <style class="style-fonts">
      @font-face {
        font-family: "Virgil";
        src: url("https://excalidraw.com/Virgil.woff2");
      }
      @font-face {
        font-family: "Cascadia";
        src: url("https://excalidraw.com/Cascadia.woff2");
      }
      @font-face {
        font-family: "Assistant";
        src: url("https://excalidraw.com/Assistant-Regular.woff2");
      }
    </style>
    
  </defs>
  <rect x="0" y="0" width="1122.1690287384617" height="1185.5396275289158" fill="#ffffff"></rect><g stroke-linecap="round" transform="translate(267.3543229077651 10) rotate(0 114 34.5)"><path d="M17.25 0 C66.54 2.56, 118.42 0.06, 210.75 0 M17.25 0 C62.91 1.05, 109.75 1.73, 210.75 0 M210.75 0 C222.51 1.9, 227.83 4.14, 228 17.25 M210.75 0 C223.65 -1.07, 229.42 3.86, 228 17.25 M228 17.25 C226.69 27.99, 227.01 41.44, 228 51.75 M228 17.25 C227.72 29.47, 227.46 43.75, 228 51.75 M228 51.75 C229.32 62.95, 220.47 67.52, 210.75 69 M228 51.75 C228.86 61.83, 220.7 67.37, 210.75 69 M210.75 69 C157.85 68.52, 102.29 65.58, 17.25 69 M210.75 69 C147.08 68.34, 84.57 67.25, 17.25 69 M17.25 69 C5.95 68.62, 1 64.02, 0 51.75 M17.25 69 C7.03 67.75, -1.94 65.36, 0 51.75 M0 51.75 C1.24 43.41, -0.17 31.29, 0 17.25 M0 51.75 C1.13 41.05, -0.31 29.9, 0 17.25 M0 17.25 C-1.03 6.49, 7.35 -1.75, 17.25 0 M0 17.25 C-1.37 8, 7.47 1.38, 17.25 0" stroke="#1e1e1e" stroke-width="2" fill="none"></path></g><g transform="translate(315.3543229077651 21) rotate(0 60.539947509765625 25)"><text x="0" y="35.03999999999999" font-family="Virgil, Segoe UI Emoji" font-size="39.99999999999999px" fill="#1e1e1e" text-anchor="start" style="white-space: pre;" direction="ltr" dominant-baseline="alphabetic">window</text></g><g stroke-linecap="round"><g transform="translate(382.3543229077651 81) rotate(0 -0.8555712351953844 34.84407470412553)"><path d="M-0.07 -0.75 C-0.09 11.04, -0.33 58.82, -0.35 70.44 M-1.56 1.46 C-1.76 12.93, -1.56 57.18, -1.48 68.55" stroke="#1e1e1e" stroke-width="2" fill="none"></path></g><g transform="translate(382.3543229077651 81) rotate(0 -0.8555712351953844 34.84407470412553)"><path d="M-10.15 45.11 C-9.02 51.18, -4.56 58.09, -1.48 68.55 M-10.15 45.11 C-9.07 49.94, -6.29 55.2, -1.48 68.55" stroke="#1e1e1e" stroke-width="2" fill="none"></path></g><g transform="translate(382.3543229077651 81) rotate(0 -0.8555712351953844 34.84407470412553)"><path d="M6.95 45.02 C3.23 51.11, 2.84 58.04, -1.48 68.55 M6.95 45.02 C4.4 49.79, 3.53 55.08, -1.48 68.55" stroke="#1e1e1e" stroke-width="2" fill="none"></path></g></g><mask></mask><g stroke-linecap="round" transform="translate(280.3543229077651 161) rotate(0 110 35.5)"><path d="M17.75 0 C84 -0.85, 147.69 -0.04, 202.25 0 M17.75 0 C84.12 0.66, 150.72 -0.36, 202.25 0 M202.25 0 C214.91 -0.5, 218.65 5.51, 220 17.75 M202.25 0 C213.25 -1.15, 220.21 4.58, 220 17.75 M220 17.75 C218.86 25.79, 221.74 33.33, 220 53.25 M220 17.75 C219.91 27.58, 219.73 39.51, 220 53.25 M220 53.25 C221.24 63.44, 212.4 69.08, 202.25 71 M220 53.25 C218.24 66.34, 212.21 70.06, 202.25 71 M202.25 71 C143.33 69.62, 83.42 71.83, 17.75 71 M202.25 71 C163.51 70.4, 125.42 69.12, 17.75 71 M17.75 71 C7.35 72.4, -0.55 65.37, 0 53.25 M17.75 71 C7.78 72.04, 2.04 63.66, 0 53.25 M0 53.25 C0.28 44.76, 1.49 36.48, 0 17.75 M0 53.25 C-0.49 41.61, -0.39 30.53, 0 17.75 M0 17.75 C0.38 4.35, 4.46 -0.43, 17.75 0 M0 17.75 C-2.22 7.12, 8.05 1.32, 17.75 0" stroke="#1e1e1e" stroke-width="2" fill="none"></path></g><g transform="translate(328.6840577100112 179) rotate(0 61.670265197753906 17.5)"><text x="61.670265197753906" y="24.528" font-family="Virgil, Segoe UI Emoji" font-size="28px" fill="#1e1e1e" text-anchor="middle" style="white-space: pre;" direction="ltr" dominant-baseline="alphabetic">document</text></g><g stroke-linecap="round"><g transform="translate(385.20989414296025 237.15592529587445) rotate(0 -0.07118933080698753 35.47670920594595)"><path d="M0.6 0.93 C0.52 12.54, 0.26 59.22, 0.13 70.59 M-0.54 0.37 C-0.82 11.55, -0.67 57.17, -0.74 68.77" stroke="#1e1e1e" stroke-width="2" fill="none"></path></g><g transform="translate(385.20989414296025 237.15592529587445) rotate(0 -0.07118933080698753 35.47670920594595)"><path d="M-9.26 45.27 C-4.56 53.69, -2.13 61.45, -0.74 68.77 M-9.26 45.27 C-8.19 51.5, -4.4 54.97, -0.74 68.77" stroke="#1e1e1e" stroke-width="2" fill="none"></path></g><g transform="translate(385.20989414296025 237.15592529587445) rotate(0 -0.07118933080698753 35.47670920594595)"><path d="M7.84 45.29 C6.55 53.79, 2.97 61.54, -0.74 68.77 M7.84 45.29 C5.02 51.56, 4.92 55.02, -0.74 68.77" stroke="#1e1e1e" stroke-width="2" fill="none"></path></g></g><mask></mask><g stroke-linecap="round" transform="translate(280.76492363037596 319.8190713100581) rotate(0 110.1950270588739 44.865118159684414)"><path d="M22.43 0 C58.95 0.12, 93.5 0.03, 197.96 0 M22.43 0 C62.96 1.57, 102.03 1, 197.96 0 M197.96 0 C213.43 -1.82, 219.96 7.45, 220.39 22.43 M197.96 0 C214.13 -1.05, 220.27 9.51, 220.39 22.43 M220.39 22.43 C222.46 38.44, 222.1 59.29, 220.39 67.3 M220.39 22.43 C220.58 31.79, 220.71 42.51, 220.39 67.3 M220.39 67.3 C221.25 83.89, 212.51 88.25, 197.96 89.73 M220.39 67.3 C222.12 81.96, 214.86 91.12, 197.96 89.73 M197.96 89.73 C147.65 88.75, 96.16 89.38, 22.43 89.73 M197.96 89.73 C163.21 89.33, 126.42 89.09, 22.43 89.73 M22.43 89.73 C7.9 90.88, 0.67 81.25, 0 67.3 M22.43 89.73 C8.23 89.36, 1.84 84.29, 0 67.3 M0 67.3 C1.84 51.07, 0.41 34.65, 0 22.43 M0 67.3 C-0.77 55.42, -0.12 44.38, 0 22.43 M0 22.43 C0.89 6.77, 6.49 -1.45, 22.43 0 M0 22.43 C0.64 7.79, 8.41 0.96, 22.43 0" stroke="#1e1e1e" stroke-width="2" fill="none"></path></g><g transform="translate(341.9999287165937 342.18418946974253) rotate(0 48.96002197265625 22.5)"><text x="48.96002197265625" y="31.536" font-family="Virgil, Segoe UI Emoji" font-size="36px" fill="#1e1e1e" text-anchor="middle" style="white-space: pre;" direction="ltr" dominant-baseline="alphabetic">HTML</text></g><g stroke-linecap="round"><g transform="translate(362.6240865883964 430.0140983689321) rotate(0 -62.78604969965187 54.54204415551595)"><path d="M0.07 -0.9 C-20.83 17.23, -104 90.71, -124.58 109.05 M-1.36 1.24 C-22.5 19.45, -105.26 91.87, -125.64 109.98" stroke="#1e1e1e" stroke-width="2" fill="none"></path></g><g transform="translate(362.6240865883964 430.0140983689321) rotate(0 -62.78604969965187 54.54204415551595)"><path d="M-113.66 88.04 C-119.5 95.74, -124.31 105.76, -125.64 109.98 M-113.66 88.04 C-116.68 93.72, -117.84 97.01, -125.64 109.98" stroke="#1e1e1e" stroke-width="2" fill="none"></path></g><g transform="translate(362.6240865883964 430.0140983689321) rotate(0 -62.78604969965187 54.54204415551595)"><path d="M-102.36 100.87 C-112.37 103.87, -121.33 109.18, -125.64 109.98 M-102.36 100.87 C-107.82 103.89, -111.38 104.45, -125.64 109.98" stroke="#1e1e1e" stroke-width="2" fill="none"></path></g></g><mask></mask><g stroke-linecap="round"><g transform="translate(447.6316788909561 428.4398836966624) rotate(0 127.79548159687187 57.40262041734326)"><path d="M-1.19 0.7 C41.58 19.86, 213.99 94.73, 256.78 113.82 M0.38 0.02 C43 19.38, 213.01 95.33, 255.93 114.78" stroke="#1e1e1e" stroke-width="2" fill="none"></path></g><g transform="translate(447.6316788909561 428.4398836966624) rotate(0 127.79548159687187 57.40262041734326)"><path d="M231 112.95 C239.94 114.08, 244.73 112.62, 255.93 114.78 M231 112.95 C239.16 113.31, 247.79 114.97, 255.93 114.78" stroke="#1e1e1e" stroke-width="2" fill="none"></path></g><g transform="translate(447.6316788909561 428.4398836966624) rotate(0 127.79548159687187 57.40262041734326)"><path d="M238.01 97.35 C244.62 103.28, 247.22 106.7, 255.93 114.78 M238.01 97.35 C243.98 102.78, 250.31 109.54, 255.93 114.78" stroke="#1e1e1e" stroke-width="2" fill="none"></path></g></g><mask></mask><g stroke-linecap="round" transform="translate(118.62081238660437 552.8028428059629) rotate(0 111.7692417311435 57.45883553784137)"><path d="M28.73 0 C94.11 0.2, 162.95 -0.29, 194.81 0 M28.73 0 C76.84 -0.08, 124.11 -0.34, 194.81 0 M194.81 0 C212.65 1.05, 223.33 9.04, 223.54 28.73 M194.81 0 C214.06 1.3, 223.08 11.54, 223.54 28.73 M223.54 28.73 C224.02 50.06, 225.46 70.77, 223.54 86.19 M223.54 28.73 C223.65 41.81, 223.27 53.41, 223.54 86.19 M223.54 86.19 C223.59 103.95, 212.55 113.59, 194.81 114.92 M223.54 86.19 C221.94 107.22, 212.75 115.15, 194.81 114.92 M194.81 114.92 C152.04 114.05, 112.22 114.07, 28.73 114.92 M194.81 114.92 C131.36 115.35, 66.57 114.03, 28.73 114.92 M28.73 114.92 C11.52 115.51, 1.1 106.23, 0 86.19 M28.73 114.92 C10.4 115.3, 0.43 107.32, 0 86.19 M0 86.19 C0.74 68.17, -1.51 50.93, 0 28.73 M0 86.19 C-0.37 70.61, 0.52 56.88, 0 28.73 M0 28.73 C1 8.89, 9.69 1.38, 28.73 0 M0 28.73 C-1.55 10.87, 10.63 -1.73, 28.73 0" stroke="#1e1e1e" stroke-width="2" fill="none"></path></g><g transform="translate(188.37803782136115 587.7616783438043) rotate(0 42.01201629638669 22.5)"><text x="42.01201629638672" y="31.536" font-family="Virgil, Segoe UI Emoji" font-size="36px" fill="#1e1e1e" text-anchor="middle" style="white-space: pre;" direction="ltr" dominant-baseline="alphabetic">Head</text></g><g stroke-linecap="round" transform="translate(649.1311569414685 565.39656018412) rotate(0 103.89816836979537 52.73619152103248)"><path d="M26.37 0 C72.88 0.57, 119.55 -0.34, 181.43 0 M26.37 0 C67.67 0.48, 106.94 0.3, 181.43 0 M181.43 0 C200.63 1.05, 207.56 10.57, 207.8 26.37 M181.43 0 C199.24 -1.54, 209.89 10.67, 207.8 26.37 M207.8 26.37 C205.64 46.93, 206.29 66.73, 207.8 79.1 M207.8 26.37 C206.89 43.69, 208.01 60.35, 207.8 79.1 M207.8 79.1 C208.63 94.91, 199.58 107.41, 181.43 105.47 M207.8 79.1 C208.08 97.12, 199.38 106.13, 181.43 105.47 M181.43 105.47 C125.4 103.63, 74.72 103.37, 26.37 105.47 M181.43 105.47 C137.03 104.19, 95.3 104.37, 26.37 105.47 M26.37 105.47 C10.56 106.33, 0.43 98.5, 0 79.1 M26.37 105.47 C10.46 107.26, 2.24 94.46, 0 79.1 M0 79.1 C-1.78 56.3, 1.18 36.11, 0 26.37 M0 79.1 C0.14 62.43, -0.16 45.05, 0 26.37 M0 26.37 C-0.77 9.73, 9.95 1.85, 26.37 0 M0 26.37 C0.39 6.84, 8.32 -0.85, 26.37 0" stroke="#1e1e1e" stroke-width="2" fill="none"></path></g><g transform="translate(699.281308953842 595.6327517051524) rotate(0 53.74801635742182 22.5)"><text x="53.748016357421875" y="31.536" font-family="Virgil, Segoe UI Emoji" font-size="36px" fill="#1e1e1e" text-anchor="middle" style="white-space: pre;" direction="ltr" dominant-baseline="alphabetic">Boady</text></g><g stroke-linecap="round"><g transform="translate(211.49947805051215 677.1658019152633) rotate(0 -38.27476066344275 46.06208260812366)"><path d="M0.47 0.05 C-12.16 15.32, -63.08 76.52, -75.89 92.01 M-0.75 -0.97 C-13.54 14.39, -64.82 77.2, -77.02 93.1" stroke="#1e1e1e" stroke-width="2" fill="none"></path></g><g transform="translate(211.49947805051215 677.1658019152633) rotate(0 -38.27476066344275 46.06208260812366)"><path d="M-69.08 69.39 C-71.2 75.68, -75 81.65, -77.02 93.1 M-69.08 69.39 C-71.23 76.54, -73.17 83.28, -77.02 93.1" stroke="#1e1e1e" stroke-width="2" fill="none"></path></g><g transform="translate(211.49947805051215 677.1658019152633) rotate(0 -38.27476066344275 46.06208260812366)"><path d="M-55.7 80.04 C-61.7 83.32, -69.35 86.23, -77.02 93.1 M-55.7 80.04 C-62.06 83.91, -68.16 87.36, -77.02 93.1" stroke="#1e1e1e" stroke-width="2" fill="none"></path></g></g><mask></mask><g stroke-linecap="round"><g transform="translate(293.3586410085328 685.0368752766115) rotate(0 10.687019369259872 45.78619048670447)"><path d="M-0.15 -0.4 C3.63 15.08, 19.33 77.54, 23.07 93.22 M-1.69 -1.65 C1.99 13.42, 18.77 75.71, 22.66 91.28" stroke="#1e1e1e" stroke-width="2" fill="none"></path></g><g transform="translate(293.3586410085328 685.0368752766115) rotate(0 10.687019369259872 45.78619048670447)"><path d="M8.46 70.71 C12.54 79.22, 18.46 84.67, 22.66 91.28 M8.46 70.71 C14.5 77.22, 18.99 85.37, 22.66 91.28" stroke="#1e1e1e" stroke-width="2" fill="none"></path></g><g transform="translate(293.3586410085328 685.0368752766115) rotate(0 10.687019369259872 45.78619048670447)"><path d="M25.01 66.39 C23.65 76.31, 24.11 83.18, 22.66 91.28 M25.01 66.39 C25 74.56, 23.42 84.29, 22.66 91.28" stroke="#1e1e1e" stroke-width="2" fill="none"></path></g></g><mask></mask><g stroke-linecap="round" transform="translate(33.6132200840442 784.212399629598) rotate(0 73.20098226053767 31.109423932764457)"><path d="M15.55 0 C50.04 -0.18, 86.1 1.5, 130.85 0 M15.55 0 C44.12 0.03, 72.99 1.1, 130.85 0 M130.85 0 C141.74 -0.97, 146.94 6.01, 146.4 15.55 M130.85 0 C141.12 2.27, 147.51 5.81, 146.4 15.55 M146.4 15.55 C145.97 20.83, 146.18 27.72, 146.4 46.66 M146.4 15.55 C147.07 28.52, 146.57 40.75, 146.4 46.66 M146.4 46.66 C147.5 58.55, 142.2 63.06, 130.85 62.22 M146.4 46.66 C145.08 55.11, 140.33 60.45, 130.85 62.22 M130.85 62.22 C96.2 61.32, 60.68 59.93, 15.55 62.22 M130.85 62.22 C91.7 61.61, 54.01 61.15, 15.55 62.22 M15.55 62.22 C6.65 62.12, -0.29 57.99, 0 46.66 M15.55 62.22 C3.13 61.67, -1.4 57.6, 0 46.66 M0 46.66 C-1.35 39.04, 1.38 29.27, 0 15.55 M0 46.66 C-0.42 39.38, 0.78 32.89, 0 15.55 M0 15.55 C-0.69 4.19, 6.23 0.75, 15.55 0 M0 15.55 C0.76 4.31, 3.21 -0.36, 15.55 0" stroke="#1e1e1e" stroke-width="2" fill="none"></path></g><g transform="translate(63.65018562094906 792.8218235623625) rotate(0 43.16401672363281 22.5)"><text x="43.16401672363281" y="31.536" font-family="Virgil, Segoe UI Emoji" font-size="36px" fill="#1e1e1e" text-anchor="middle" style="white-space: pre;" direction="ltr" dominant-baseline="alphabetic">Title</text></g><g stroke-linecap="round" transform="translate(242.19666415976997 795.6067718481135) rotate(0 73.20098226053767 31.109423932764457)"><path d="M15.55 0 C55.42 -0.82, 93.41 2.7, 130.85 0 M15.55 0 C56.42 -1.1, 97.24 -0.5, 130.85 0 M130.85 0 C141.85 -1.68, 147.63 7.07, 146.4 15.55 M130.85 0 C140.16 1.53, 145.21 4.64, 146.4 15.55 M146.4 15.55 C145.26 24.2, 147.46 34.32, 146.4 46.66 M146.4 15.55 C146.52 28.27, 146.49 38.56, 146.4 46.66 M146.4 46.66 C145.3 55.81, 142.52 62.69, 130.85 62.22 M146.4 46.66 C148.21 54.76, 141.81 63.54, 130.85 62.22 M130.85 62.22 C92.36 62.15, 50.53 62.89, 15.55 62.22 M130.85 62.22 C101.09 63.53, 70.22 64.02, 15.55 62.22 M15.55 62.22 C3.45 63.8, -1.31 58.21, 0 46.66 M15.55 62.22 C6.74 61.24, -1.15 56, 0 46.66 M0 46.66 C0.28 35.18, 2.07 27.84, 0 15.55 M0 46.66 C0.47 37.14, 0.15 28.28, 0 15.55 M0 15.55 C1.13 5.88, 4.81 0.24, 15.55 0 M0 15.55 C2.06 3.89, 3.19 -0.94, 15.55 0" stroke="#1e1e1e" stroke-width="2" fill="none"></path></g><g transform="translate(271.98163079530764 804.2161957808779) rotate(0 43.416015625 22.5)"><text x="43.416015625" y="31.536" font-family="Virgil, Segoe UI Emoji" font-size="36px" fill="#1e1e1e" text-anchor="middle" style="white-space: pre;" direction="ltr" dominant-baseline="alphabetic">meta</text></g><g stroke-linecap="round"><g transform="translate(107.60130968071678 856.6262745540009) rotate(0 -0.6481318352233245 29.74064024425735)"><path d="M0.49 0.24 C0.48 10.13, -0.85 50.06, -1.09 60.16 M-0.7 -0.67 C-0.75 8.76, -1.68 48.27, -1.79 58.21" stroke="#1e1e1e" stroke-width="2" fill="none"></path></g><g transform="translate(107.60130968071678 856.6262745540009) rotate(0 -0.6481318352233245 29.74064024425735)"><path d="M-9.92 34.57 C-7.58 40.45, -5.67 45.81, -1.79 58.21 M-9.92 34.57 C-6.21 43.23, -4.05 53.51, -1.79 58.21" stroke="#1e1e1e" stroke-width="2" fill="none"></path></g><g transform="translate(107.60130968071678 856.6262745540009) rotate(0 -0.6481318352233245 29.74064024425735)"><path d="M7.18 34.88 C5.81 40.76, 4.02 46.05, -1.79 58.21 M7.18 34.88 C4.35 43.55, -0.04 53.7, -1.79 58.21" stroke="#1e1e1e" stroke-width="2" fill="none"></path></g></g><mask></mask><g transform="translate(10 925.8917201338645) rotate(0 101.07003021240234 22.5)"><text x="0" y="31.536" font-family="Virgil, Segoe UI Emoji" font-size="36px" fill="#1e1e1e" text-anchor="start" style="white-space: pre;" direction="ltr" dominant-baseline="alphabetic">Text node </text></g><g stroke-linecap="round"><g transform="translate(318.5460757648467 864.497347915349) rotate(0 22.71106144544683 27.92022067111094)"><path d="M0.5 0.72 C8.13 9.91, 38.75 45.6, 46.11 54.54 M-0.69 0.05 C6.79 9.44, 37.44 46.58, 45.4 55.79" stroke="#1e1e1e" stroke-width="2" fill="none"></path></g><g transform="translate(318.5460757648467 864.497347915349) rotate(0 22.71106144544683 27.92022067111094)"><path d="M23.74 43.32 C31.98 48.08, 36.96 49.81, 45.4 55.79 M23.74 43.32 C29.42 46.04, 34.12 48.09, 45.4 55.79" stroke="#1e1e1e" stroke-width="2" fill="none"></path></g><g transform="translate(318.5460757648467 864.497347915349) rotate(0 22.71106144544683 27.92022067111094)"><path d="M36.82 32.31 C40.72 40.74, 41.41 46.08, 45.4 55.79 M36.82 32.31 C39.45 37.76, 41.04 42.43, 45.4 55.79" stroke="#1e1e1e" stroke-width="2" fill="none"></path></g></g><mask></mask><g transform="translate(287.0617823194542 929.0401494784035) rotate(0 92.98804473876953 22.5)"><text x="0" y="31.536" font-family="Virgil, Segoe UI Emoji" font-size="36px" fill="#1e1e1e" text-anchor="start" style="white-space: pre;" direction="ltr" dominant-baseline="alphabetic">Attributes</text></g><g stroke-linecap="round" transform="translate(672.744377025513 740.1343888060487) rotate(0 73.20098226053767 33.845615453796995)"><path d="M16.92 0 C55.6 2.43, 94.1 -0.03, 129.48 0 M16.92 0 C43.5 1.71, 67.95 1.78, 129.48 0 M129.48 0 C141.19 -1.11, 147.08 4.65, 146.4 16.92 M129.48 0 C141.29 -0.56, 145.84 6.37, 146.4 16.92 M146.4 16.92 C144.64 29.11, 146.85 38.72, 146.4 50.77 M146.4 16.92 C146.84 26.16, 146.05 35.12, 146.4 50.77 M146.4 50.77 C146.05 61.91, 142.49 67.1, 129.48 67.69 M146.4 50.77 C145.08 61.8, 141.24 66.78, 129.48 67.69 M129.48 67.69 C84.24 68.66, 40.97 69.07, 16.92 67.69 M129.48 67.69 C99.99 67.09, 70.24 66.73, 16.92 67.69 M16.92 67.69 C6.13 67.23, -0.22 60.73, 0 50.77 M16.92 67.69 C6.89 68.64, 0.6 59.93, 0 50.77 M0 50.77 C-0.13 36.63, -2.05 26.27, 0 16.92 M0 50.77 C0.04 41.05, 0.29 32.36, 0 16.92 M0 16.92 C-1.95 7.31, 6.12 -1.62, 16.92 0 M0 16.92 C1.23 4.9, 7.6 0.74, 16.92 0" stroke="#1e1e1e" stroke-width="2" fill="none"></path></g><g transform="translate(722.3473520839023 751.4800042598457) rotate(0 23.59800720214838 22.5)"><text x="23.598007202148438" y="31.536" font-family="Virgil, Segoe UI Emoji" font-size="36px" fill="#1e1e1e" text-anchor="middle" style="white-space: pre;" direction="ltr" dominant-baseline="alphabetic">div</text></g><g stroke-linecap="round"><g transform="translate(746.0149569015394 686.6110899488812) rotate(0 -0.23063422312179682 19.02340927301384)"><path d="M-0.4 0.33 C-0.42 6.52, -0.56 31.16, -0.61 37.48 M0.4 0.02 C0.37 6.25, -0.65 31.79, -0.86 38.02" stroke="#1e1e1e" stroke-width="2" fill="none"></path></g><g transform="translate(746.0149569015394 686.6110899488812) rotate(0 -0.23063422312179682 19.02340927301384)"><path d="M-6.67 20.04 C-4.77 24.58, -4.59 28.4, -0.86 38.02 M-6.67 20.04 C-3.91 26.82, -2 34.17, -0.86 38.02" stroke="#1e1e1e" stroke-width="2" fill="none"></path></g><g transform="translate(746.0149569015394 686.6110899488812) rotate(0 -0.23063422312179682 19.02340927301384)"><path d="M6.25 20.52 C5.32 24.91, 2.67 28.63, -0.86 38.02 M6.25 20.52 C4.05 27.06, 0.99 34.23, -0.86 38.02" stroke="#1e1e1e" stroke-width="2" fill="none"></path></g></g><mask></mask><g stroke-linecap="round"><g transform="translate(855.3532790087896 770.0444675791714) rotate(0 28.6281548754464 -3.6407609763933806)"><path d="M-0.34 -0.34 C8.93 -1.51, 45.98 -6.04, 55.5 -6.94 M1.68 -1.57 C11.31 -2.59, 48.53 -4.7, 57.6 -5.74" stroke="#1e1e1e" stroke-width="2" fill="none"></path></g><g transform="translate(855.3532790087896 770.0444675791714) rotate(0 28.6281548754464 -3.6407609763933806)"><path d="M34.88 4.7 C40.92 -0.23, 47.04 -1.16, 57.6 -5.74 M34.88 4.7 C43.15 0.06, 51.24 -2.04, 57.6 -5.74" stroke="#1e1e1e" stroke-width="2" fill="none"></path></g><g transform="translate(855.3532790087896 770.0444675791714) rotate(0 28.6281548754464 -3.6407609763933806)"><path d="M33.48 -12.34 C39.94 -12.3, 46.46 -8.27, 57.6 -5.74 M33.48 -12.34 C42.3 -11.11, 50.87 -7.35, 57.6 -5.74" stroke="#1e1e1e" stroke-width="2" fill="none"></path></g></g><mask></mask><g transform="translate(926.1929392609228 736.9859594615092) rotate(0 92.98804473876953 22.5)"><text x="0" y="31.536" font-family="Virgil, Segoe UI Emoji" font-size="36px" fill="#1e1e1e" text-anchor="start" style="white-space: pre;" direction="ltr" dominant-baseline="alphabetic">Attributes</text></g><g stroke-linecap="round"><g transform="translate(682.1896650591308 815.6966930749907) rotate(0 -0.9621951357743797 32.41302114146964)"><path d="M0.85 0.95 C0.36 11.54, -1.5 52.97, -2.28 63.46 M-0.16 0.4 C-0.79 11.11, -1.98 53.69, -2.78 64.42" stroke="#1e1e1e" stroke-width="2" fill="none"></path></g><g transform="translate(682.1896650591308 815.6966930749907) rotate(0 -0.9621951357743797 32.41302114146964)"><path d="M-10.18 40.55 C-5.98 50.44, -6.74 56.34, -2.78 64.42 M-10.18 40.55 C-9.1 46.15, -6.68 52.06, -2.78 64.42" stroke="#1e1e1e" stroke-width="2" fill="none"></path></g><g transform="translate(682.1896650591308 815.6966930749907) rotate(0 -0.9621951357743797 32.41302114146964)"><path d="M6.9 41.37 C5.02 51.09, -1.82 56.7, -2.78 64.42 M6.9 41.37 C3.85 46.92, 2.15 52.64, -2.78 64.42" stroke="#1e1e1e" stroke-width="2" fill="none"></path></g></g><mask></mask><g stroke-linecap="round"><g transform="translate(798.0695312705881 813.1937507066439) rotate(0 -2.1696396390817654 32.489978993788554)"><path d="M0.36 0.77 C-0.39 11.39, -2.79 54.19, -3.54 64.86 M-0.91 0.12 C-1.93 10.88, -4.56 51.89, -4.7 62.9" stroke="#1e1e1e" stroke-width="2" fill="none"></path></g><g transform="translate(798.0695312705881 813.1937507066439) rotate(0 -2.1696396390817654 32.489978993788554)"><path d="M-12.26 39.07 C-7.91 47.38, -5.81 55.38, -4.7 62.9 M-12.26 39.07 C-9.84 47, -7.97 54.91, -4.7 62.9" stroke="#1e1e1e" stroke-width="2" fill="none"></path></g><g transform="translate(798.0695312705881 813.1937507066439) rotate(0 -2.1696396390817654 32.489978993788554)"><path d="M4.83 39.79 C2.72 47.88, -1.63 55.61, -4.7 62.9 M4.83 39.79 C1.83 47.46, -1.73 55.13, -4.7 62.9" stroke="#1e1e1e" stroke-width="2" fill="none"></path></g></g><mask></mask><g stroke-linecap="round" transform="translate(608.2015754624582 908.5753587388986) rotate(0 55.88462086557172 37.781152134471085)"><path d="M18.89 0 C36.65 -1.24, 53.75 0.57, 92.88 0 M18.89 0 C44.95 0.18, 73.18 -0.28, 92.88 0 M92.88 0 C104.59 1.42, 110.2 8.16, 111.77 18.89 M92.88 0 C103.72 -0.33, 111.85 7.81, 111.77 18.89 M111.77 18.89 C111.71 28.26, 113.98 40.12, 111.77 56.67 M111.77 18.89 C111.7 30.39, 112.1 41.59, 111.77 56.67 M111.77 56.67 C112.38 69.44, 103.75 77.46, 92.88 75.56 M111.77 56.67 C112.5 68.59, 105.3 73.73, 92.88 75.56 M92.88 75.56 C67.85 77.47, 42.62 76.27, 18.89 75.56 M92.88 75.56 C72.67 75.67, 52.16 75.06, 18.89 75.56 M18.89 75.56 C6.81 73.78, -0.36 70.37, 0 56.67 M18.89 75.56 C5.65 75.99, -1.74 68.05, 0 56.67 M0 56.67 C0.03 44.58, 1.6 36.14, 0 18.89 M0 56.67 C-0.66 42.96, 0.47 28.72, 0 18.89 M0 18.89 C-0.11 4.72, 4.63 -0.99, 18.89 0 M0 18.89 C1.33 4.06, 4.47 -0.35, 18.89 0" stroke="#1e1e1e" stroke-width="2" fill="none"></path></g><g transform="translate(650.316192055569 923.8565108733696) rotate(0 13.770004272460938 22.5)"><text x="13.770004272460938" y="31.536" font-family="Virgil, Segoe UI Emoji" font-size="36px" fill="#1e1e1e" text-anchor="middle" style="white-space: pre;" direction="ltr" dominant-baseline="alphabetic">h1</text></g><g stroke-linecap="round" transform="translate(779.7909747398475 907.0011440666289) rotate(0 72.41387492440288 37.78115213447114)"><path d="M18.89 0 C43.91 -1.66, 70.9 0.25, 125.94 0 M18.89 0 C41.32 -0.14, 65.35 -0.19, 125.94 0 M125.94 0 C139.9 1.41, 145.2 5.74, 144.83 18.89 M125.94 0 C140.75 -0.83, 145.93 8.59, 144.83 18.89 M144.83 18.89 C144.32 26.49, 144.85 38.3, 144.83 56.67 M144.83 18.89 C144.44 29.5, 145.32 41.4, 144.83 56.67 M144.83 56.67 C143.69 71.19, 138.78 75.89, 125.94 75.56 M144.83 56.67 C145.63 67.05, 137.65 76.67, 125.94 75.56 M125.94 75.56 C86.85 77, 49.11 76.93, 18.89 75.56 M125.94 75.56 C92.21 76.1, 59.83 76.24, 18.89 75.56 M18.89 75.56 C7.77 76.51, -1.07 69.12, 0 56.67 M18.89 75.56 C7.51 74.19, -1.19 68.54, 0 56.67 M0 56.67 C0.6 46.34, 1.85 31.93, 0 18.89 M0 56.67 C-0.97 46.22, 0.48 37.92, 0 18.89 M0 18.89 C-0.74 5.03, 7.71 -0.59, 18.89 0 M0 18.89 C0.35 5.92, 7.48 2.22, 18.89 0" stroke="#1e1e1e" stroke-width="2" fill="none"></path></g><g transform="translate(840.3068470397385 922.2822962011) rotate(0 11.898002624511719 22.5)"><text x="11.898002624511719" y="31.536" font-family="Virgil, Segoe UI Emoji" font-size="36px" fill="#1e1e1e" text-anchor="middle" style="white-space: pre;" direction="ltr" dominant-baseline="alphabetic">P</text></g><g stroke-linecap="round"><g transform="translate(630.2405808742329 990.4345216969191) rotate(0 -36.599986417841194 48.90720405483694)"><path d="M-0.09 0.67 C-11.94 16.95, -60.16 80.65, -72.25 96.75 M-1.6 -0.03 C-13.49 16.47, -61.12 81.43, -73.11 97.84" stroke="#1e1e1e" stroke-width="2" fill="none"></path></g><g transform="translate(630.2405808742329 990.4345216969191) rotate(0 -36.599986417841194 48.90720405483694)"><path d="M-66.13 73.83 C-66.63 78.97, -70.57 83.21, -73.11 97.84 M-66.13 73.83 C-67.43 80.81, -69.92 87.87, -73.11 97.84" stroke="#1e1e1e" stroke-width="2" fill="none"></path></g><g transform="translate(630.2405808742329 990.4345216969191) rotate(0 -36.599986417841194 48.90720405483694)"><path d="M-52.33 83.93 C-55.54 87.01, -62.29 89.2, -73.11 97.84 M-52.33 83.93 C-57.35 88.06, -63.61 92.36, -73.11 97.84" stroke="#1e1e1e" stroke-width="2" fill="none"></path></g></g><mask></mask><g stroke-linecap="round"><g transform="translate(658.5764449750862 998.3055950582673) rotate(0 22.89021929640819 52.11806419474226)"><path d="M0.12 0.49 C8.09 17.97, 39.3 87.46, 47.06 104.53 M-1.28 -0.3 C6.58 16.87, 38.21 85.41, 46.02 102.74" stroke="#1e1e1e" stroke-width="2" fill="none"></path></g><g transform="translate(658.5764449750862 998.3055950582673) rotate(0 22.89021929640819 52.11806419474226)"><path d="M28.48 84.93 C33.44 88.88, 37.87 92.48, 46.02 102.74 M28.48 84.93 C31.82 89.78, 36.69 93.51, 46.02 102.74" stroke="#1e1e1e" stroke-width="2" fill="none"></path></g><g transform="translate(658.5764449750862 998.3055950582673) rotate(0 22.89021929640819 52.11806419474226)"><path d="M44.04 77.82 C45.25 83.49, 45.97 88.79, 46.02 102.74 M44.04 77.82 C43.94 84.16, 45.42 89.43, 46.02 102.74" stroke="#1e1e1e" stroke-width="2" fill="none"></path></g></g><mask></mask><g transform="translate(387.04594212394625 1101.7427688398375) rotate(0 92.07003021240234 22.5)"><text x="0" y="31.536" font-family="Virgil, Segoe UI Emoji" font-size="36px" fill="#1e1e1e" text-anchor="start" style="white-space: pre;" direction="ltr" dominant-baseline="alphabetic">Text node</text></g><g transform="translate(611.3500048069972 1113.2232661339497) rotate(0 92.98804473876953 22.5)"><text x="0" y="31.536" font-family="Virgil, Segoe UI Emoji" font-size="36px" fill="#1e1e1e" text-anchor="start" style="white-space: pre;" direction="ltr" dominant-baseline="alphabetic">Attributes</text></g><g stroke-linecap="round"><g transform="translate(904.1539338491481 988.8603070246495) rotate(0 39.74328882363989 63.801149407764115)"><path d="M-0.22 -0.01 C13.25 21.54, 67.87 107.35, 81.28 128.67 M-1.79 -1.07 C11.56 20.24, 67.31 106.02, 80.86 127.15" stroke="#1e1e1e" stroke-width="2" fill="none"></path></g><g transform="translate(904.1539338491481 988.8603070246495) rotate(0 39.74328882363989 63.801149407764115)"><path d="M60.93 112.06 C67.59 118.88, 76.32 122.29, 80.86 127.15 M60.93 112.06 C66.73 117, 73.29 121.25, 80.86 127.15" stroke="#1e1e1e" stroke-width="2" fill="none"></path></g><g transform="translate(904.1539338491481 988.8603070246495) rotate(0 39.74328882363989 63.801149407764115)"><path d="M75.3 102.78 C77.03 112.73, 80.87 119.29, 80.86 127.15 M75.3 102.78 C76.32 110.78, 78.11 118.11, 80.86 127.15" stroke="#1e1e1e" stroke-width="2" fill="none"></path></g></g><mask></mask><g transform="translate(913.5992218827656 1130.5396275289158) rotate(0 92.07003021240234 22.5)"><text x="0" y="31.536" font-family="Virgil, Segoe UI Emoji" font-size="36px" fill="#1e1e1e" text-anchor="start" style="white-space: pre;" direction="ltr" dominant-baseline="alphabetic">Text node</text></g></svg>